<?xml version="1.0" standalone="no"?>
<!DOCTYPE svg PUBLIC "-//W3C//DTD SVG 20010904//EN"
 "http://www.w3.org/TR/2001/REC-SVG-20010904/DTD/svg10.dtd">
<svg version="1.0" xmlns="http://www.w3.org/2000/svg"
 width="500.000000pt" height="500.000000pt" viewBox="0 0 500.000000 500.000000"
 preserveAspectRatio="xMidYMid meet">
<metadata>
Created by potrace 1.11, written by Peter Selinger 2001-2013
</metadata>
<g transform="translate(0.000000,500.000000) scale(0.100000,-0.100000)"
fill="#000000" stroke="none">
<path d="M2470 4266 c-19 -7 -66 -32 -105 -55 -83 -49 -118 -52 -246 -19 -108
28 -124 22 -221 -78 -39 -40 -83 -77 -97 -83 -14 -5 -69 -11 -123 -14 -131 -6
-150 -17 -209 -132 -26 -49 -58 -99 -72 -111 -14 -12 -68 -36 -120 -53 -130
-44 -144 -61 -167 -207 -15 -93 -36 -125 -119 -179 -38 -25 -81 -59 -96 -77
l-27 -31 7 -129 c8 -143 10 -138 -71 -234 -24 -28 -50 -67 -59 -87 -16 -39
-11 -65 39 -182 32 -75 32 -115 0 -190 -50 -117 -55 -143 -39 -182 9 -20 35
-59 59 -87 23 -28 51 -63 61 -78 17 -28 19 -28 121 -28 l103 0 -15 48 c-55
178 -70 467 -35 674 107 619 600 1112 1219 1219 229 39 507 20 720 -50 527
-173 919 -626 1013 -1169 35 -207 20 -496 -35 -675 l-15 -47 98 0 c97 0 99 1
116 28 10 15 38 50 61 78 52 60 75 112 67 145 -3 13 -21 61 -39 106 -19 45
-34 96 -34 113 0 17 15 68 34 113 18 45 36 93 39 106 9 34 -15 84 -74 154 -28
34 -56 73 -61 87 -6 15 -7 73 -3 146 l7 120 -27 32 c-15 18 -58 52 -96 77 -76
49 -105 87 -114 149 -26 175 -39 192 -170 236 -52 17 -105 40 -118 51 -14 10
-45 58 -70 107 -25 48 -54 95 -64 104 -25 23 -94 37 -176 38 -90 0 -121 15
-193 93 -34 36 -78 74 -98 84 -36 17 -40 17 -124 -5 -132 -34 -161 -31 -262
27 -101 58 -124 64 -170 47z"/>
<path d="M2380 3864 c-624 -79 -1095 -514 -1217 -1121 -12 -64 -17 -134 -17
-253 1 -170 12 -247 54 -389 21 -70 21 -71 55 -71 40 0 41 2 19 61 -40 114
-57 231 -58 399 0 186 15 283 66 428 157 445 520 762 983 858 66 13 133 18
250 18 117 0 184 -5 250 -18 593 -123 1017 -612 1052 -1214 9 -161 -11 -299
-74 -514 -4 -15 1 -18 30 -18 36 0 36 0 57 71 42 142 53 219 54 389 0 119 -5
189 -17 253 -112 561 -544 994 -1099 1102 -82 16 -319 27 -388 19z"/>
<path d="M1580 3019 l0 -150 -27 3 c-22 2 -29 9 -31 31 -3 24 -7 28 -30 25
-25 -3 -27 -6 -25 -48 2 -29 8 -49 20 -57 24 -18 104 -16 131 3 21 15 22 21
22 180 l0 164 -30 0 -30 0 0 -151z"/>
<path d="M1690 2990 l0 -180 30 0 30 0 0 75 0 75 30 0 30 0 0 -75 0 -75 30 0
30 0 0 180 0 180 -30 0 -30 0 0 -75 0 -75 -30 0 -30 0 0 75 0 75 -30 0 -30 0
0 -180z"/>
<path d="M1985 3158 c-5 -13 -75 -335 -75 -344 0 -2 13 -4 29 -4 25 0 30 5 35
35 7 34 8 35 51 35 40 0 45 -3 45 -22 0 -35 14 -50 42 -46 l25 3 -38 175 c-21
96 -39 176 -39 178 -1 9 -72 -1 -75 -10z m65 -210 c0 -13 -8 -18 -29 -18 -22
0 -28 4 -25 18 2 9 9 44 15 77 l12 60 13 -60 c7 -33 13 -68 14 -77z"/>
<path d="M2177 3163 c-4 -3 -7 -84 -7 -180 l0 -173 30 0 30 0 0 60 c0 52 2 60
19 60 15 0 22 -13 33 -57 13 -54 16 -58 45 -61 l31 -3 -15 57 c-13 52 -13 60
2 89 25 45 18 181 -10 201 -19 14 -145 20 -158 7z m118 -113 c0 -55 0 -55 -32
-58 l-33 -3 0 61 0 61 33 -3 c32 -3 32 -3 32 -58z"/>
<path d="M2402 2993 l3 -178 28 -3 c26 -3 27 -2 27 48 0 28 5 61 11 72 10 19
14 14 41 -51 27 -65 32 -71 59 -71 16 0 29 4 29 9 0 5 -18 48 -40 95 l-39 86
39 85 39 85 -29 0 c-27 0 -34 -7 -67 -72 l-38 -73 -3 73 -3 72 -30 0 -29 0 2
-177z"/>
<path d="M2640 2990 l0 -180 30 0 30 0 0 75 0 75 30 0 30 0 0 -75 0 -75 30 0
30 0 0 180 0 180 -30 0 -30 0 0 -75 0 -75 -30 0 -30 0 0 75 0 75 -30 0 -30 0
0 -180z"/>
<path d="M2935 3158 c-5 -13 -75 -335 -75 -344 0 -2 13 -4 29 -4 25 0 30 5 35
35 7 34 8 35 51 35 40 0 45 -3 45 -22 0 -35 14 -50 42 -46 l25 3 -38 175 c-21
96 -39 176 -39 178 -1 9 -72 -1 -75 -10z m65 -210 c0 -13 -8 -18 -29 -18 -22
0 -28 4 -25 18 2 9 9 44 15 77 l12 60 13 -60 c7 -33 13 -68 14 -77z"/>
<path d="M3122 2993 l3 -178 27 -3 27 -3 3 103 3 103 36 -100 c35 -95 38 -100
65 -100 l29 0 3 178 2 177 -30 0 -30 0 0 -97 c0 -53 -3 -93 -7 -89 -5 4 -22
47 -39 94 -30 82 -33 87 -63 90 l-31 3 2 -178z"/>
<path d="M3364 3157 c-2 -7 -3 -87 -2 -177 l3 -165 63 -3 c46 -2 71 2 88 13
24 15 24 18 24 165 0 143 -1 150 -22 164 -28 20 -146 22 -154 3z m121 -69 c3
-13 5 -66 3 -118 l-3 -95 -32 -3 -33 -3 0 120 0 121 30 0 c22 0 31 -5 35 -22z"/>
<path d="M2127 2533 c-4 -3 -7 -84 -7 -180 l0 -173 30 0 30 0 0 74 0 75 48 3
c43 3 47 5 47 28 0 23 -4 25 -47 28 l-48 3 0 45 0 44 60 0 60 0 0 30 0 30 -83
0 c-46 0 -87 -3 -90 -7z"/>
<path d="M2364 2526 c-17 -13 -19 -27 -19 -166 0 -139 2 -153 19 -166 26 -19
106 -18 134 2 21 14 22 22 22 164 0 142 -1 150 -22 164 -28 20 -108 21 -134 2z
m101 -166 l0 -115 -30 0 -30 0 -3 104 c-1 58 0 111 3 118 3 9 16 13 32 11 l28
-3 0 -115z"/>
<path d="M2594 2526 c-17 -13 -19 -27 -19 -166 0 -139 2 -153 19 -166 26 -19
106 -18 134 2 21 14 22 22 22 164 0 142 -1 150 -22 164 -28 20 -108 21 -134 2z
m101 -166 l0 -115 -30 0 -30 0 -3 104 c-1 58 0 111 3 118 3 9 16 13 32 11 l28
-3 0 -115z"/>
<path d="M2804 2527 c-2 -7 -3 -87 -2 -177 l3 -165 63 -3 c46 -2 71 2 88 13
24 15 24 18 24 165 0 143 -1 150 -22 164 -28 20 -146 22 -154 3z m121 -69 c3
-13 5 -66 3 -118 l-3 -95 -32 -3 -33 -3 0 120 0 121 30 0 c22 0 31 -5 35 -22z"/>
<path d="M1100 1553 c0 -21 30 -175 36 -186 22 -38 56 -59 141 -88 52 -17 106
-41 120 -53 14 -12 46 -62 72 -111 59 -115 78 -126 209 -132 54 -3 109 -9 123
-14 14 -6 58 -43 98 -84 98 -99 112 -105 220 -77 132 34 160 31 264 -29 117
-68 137 -68 254 0 104 60 132 63 264 29 108 -28 122 -22 220 77 40 41 84 78
98 84 14 5 69 11 123 14 131 6 150 17 209 132 26 49 58 99 72 111 14 12 68 36
120 53 85 29 119 50 141 88 6 11 36 165 36 186 0 4 -52 7 -115 7 l-114 0 -48
-52 c-310 -338 -687 -508 -1128 -508 -234 0 -432 43 -639 139 -168 78 -365
226 -482 363 l-49 56 -122 1 c-68 1 -123 -2 -123 -6z"/>
<path d="M1528 1544 c5 -9 40 -43 78 -76 189 -164 416 -276 661 -325 121 -24
375 -24 496 0 246 49 477 163 662 327 93 82 97 90 45 90 -35 0 -50 -8 -104
-54 -174 -147 -373 -243 -606 -293 -119 -25 -371 -24 -495 1 -224 46 -428 146
-601 292 -54 46 -69 54 -104 54 -34 0 -40 -3 -32 -16z"/>
</g>
</svg>
